<svg width="203" height="31" viewBox="0 0 203 31" fill="none" xmlns="http://www.w3.org/2000/svg">
<path d="M13.7747 2.90129C14.8611 2.90129 15.7147 3.75493 15.7147 4.80258V22.147C15.6759 26.454 12.145 29.9462 7.83797 29.9462C3.53097 29.9462 0.116406 26.3764 0 22.4186C0 21.3322 0.85364 20.5561 1.90129 20.5561C2.94894 20.5561 3.84138 21.3322 3.84138 22.4186C3.84138 24.2811 5.62627 26.1048 7.83797 26.1048C10.0497 26.1048 11.8734 24.2811 11.8734 22.0694V4.80258C11.8734 3.75493 12.727 2.90129 13.7747 2.90129Z" fill="url(#paint0_linear_913_11190)"/>
<path d="M26.555 10.6617C31.25 10.6617 36.2943 14.0762 36.2943 20.4009C36.2943 21.4486 35.4406 22.3022 34.3542 22.3022H20.9675C21.7824 24.6303 23.9553 26.2988 26.555 26.2988C27.4474 26.2988 29.0383 26.2212 30.9008 25.0183C31.7932 24.4363 32.9961 24.9795 33.4617 25.9108C33.9274 26.8808 33.4229 27.8897 32.5305 28.4717C29.9696 30.179 27.9907 30.1402 26.555 30.1402C21.1615 30.1402 16.8157 25.7556 16.8157 20.4009C16.8157 15.0075 21.1615 10.6617 26.555 10.6617ZM26.555 14.503C23.9553 14.503 21.7824 16.1715 20.9675 18.4608H32.1813C31.3664 15.7447 28.8831 14.503 26.555 14.503Z" fill="url(#paint1_linear_913_11190)"/>
<path d="M61.9186 10.8557C62.8887 11.2049 63.3931 12.3301 63.0439 13.339L57.2236 28.8597C56.9132 29.5969 56.176 30.1402 55.3611 30.1402C54.5463 30.1402 53.809 29.6358 53.5374 28.8597L49.502 18.1116L45.5054 28.8597C45.195 29.5969 44.4578 30.1402 43.643 30.1402C42.8281 30.1402 42.0909 29.6358 41.8193 28.8597L35.999 13.339C35.611 12.3301 36.1154 11.2049 37.1243 10.8557C38.0943 10.4676 39.2196 10.9721 39.5688 11.9809L43.643 22.8066L47.6784 12.0585C47.8724 11.5153 48.2604 11.0497 48.8424 10.8557C49.0364 10.7781 49.2304 10.7393 49.4244 10.7393C49.4632 10.7393 49.502 10.7393 49.502 10.7393C49.5408 10.7393 49.5408 10.7393 49.5408 10.7393C49.5796 10.7393 49.5796 10.7393 49.6184 10.7393C49.6184 10.7393 49.6184 10.7393 49.6572 10.7393H49.6961C49.7349 10.7393 49.7349 10.7393 49.7349 10.7393C49.7737 10.7393 49.7737 10.7393 49.7737 10.7393C49.8125 10.7393 49.8125 10.7393 49.8513 10.7393C49.8513 10.7393 49.8513 10.7781 49.8901 10.7781H49.9289C49.9677 10.7781 49.9677 10.7781 49.9677 10.7781C50.0065 10.7781 50.0065 10.7781 50.0453 10.8169C50.0841 10.8169 50.1229 10.8169 50.1229 10.8169C50.1617 10.8557 50.1617 10.8557 50.2005 10.8557C50.7437 11.0497 51.1705 11.5153 51.3257 12.0585L55.3611 22.8066L59.4353 11.9809C59.8233 10.9721 60.9098 10.4676 61.9186 10.8557Z" fill="url(#paint2_linear_913_11190)"/>
<path d="M74.0781 10.5841C79.4716 10.5841 83.8174 14.9299 83.8174 20.3233C83.8174 25.678 79.4716 30.0626 74.0781 30.0626C68.7235 30.0626 64.3389 25.678 64.3389 20.3233V2.90129C64.3389 1.85364 65.1925 1 66.279 1C67.3266 1 68.1803 1.85364 68.1803 2.90129V12.5629C69.8099 11.3213 71.8664 10.5841 74.0781 10.5841ZM74.0781 26.2212C77.3375 26.2212 79.976 23.5439 79.976 20.3233C79.976 17.064 77.3375 14.4254 74.0781 14.4254C70.8188 14.4254 68.1803 17.064 68.1803 20.2845V20.3233C68.1803 23.5827 70.8188 26.2212 74.0781 26.2212Z" fill="url(#paint3_linear_913_11190)"/>
<path d="M114.384 10.7005C115.471 10.7005 116.325 11.5541 116.325 12.6017C116.325 13.6494 115.471 14.5418 114.384 14.5418H111.63V28.2389C111.63 29.2865 110.776 30.179 109.689 30.179C108.642 30.179 107.788 29.2865 107.788 28.2389V14.5418H104.994C103.947 14.5418 103.093 13.6494 103.093 12.6017C103.093 11.5541 103.947 10.7005 104.994 10.7005H107.788V2.94009C107.788 1.89244 108.642 1.0388 109.689 1.0388C110.776 1.0388 111.63 1.89244 111.63 2.94009V10.7005H114.384Z" fill="url(#paint4_linear_913_11190)"/>
<path d="M101.575 27.1153C97.7395 30.9503 91.5217 30.9503 87.6866 27.1153C83.8516 23.2802 83.8516 17.0624 87.6866 13.2273C91.5217 9.3923 97.7395 9.3923 101.575 13.2273C105.41 17.0624 105.41 23.2802 101.575 27.1153ZM90.4066 15.9473C88.0737 18.2801 88.0737 22.0625 90.4066 24.3954C92.7394 26.7282 96.5218 26.7282 98.8547 24.3954C101.188 22.0625 101.188 18.2801 98.8547 15.9473C96.5218 13.6144 92.7394 13.6144 90.4066 15.9473Z" fill="url(#paint5_linear_913_11190)"/>
<path d="M99.975 7.44624C100.311 6.64622 99.9363 5.71689 99.1062 5.46424C96.2383 4.59142 93.1762 4.57635 90.2999 5.42093C89.4673 5.6654 89.0836 6.591 89.4117 7.39429C89.7398 8.19758 90.6557 8.57204 91.4944 8.34953C93.5887 7.7939 95.7942 7.80474 97.8829 8.38095C98.7194 8.6117 99.639 8.24627 99.975 7.44624Z" fill="url(#paint6_linear_913_11190)"/>
<path d="M126.368 23.736C126.496 24.344 126.789 24.8133 127.248 25.144C127.707 25.464 128.267 25.624 128.928 25.624C129.845 25.624 130.533 25.2933 130.992 24.632L132.416 25.464C131.627 26.6267 130.459 27.208 128.912 27.208C127.611 27.208 126.56 26.8133 125.76 26.024C124.96 25.224 124.56 24.216 124.56 23C124.56 21.8053 124.955 20.808 125.744 20.008C126.533 19.1973 127.547 18.792 128.784 18.792C129.957 18.792 130.917 19.2027 131.664 20.024C132.421 20.8453 132.8 21.8427 132.8 23.016C132.8 23.1973 132.779 23.4373 132.736 23.736H126.368ZM126.352 22.328H131.056C130.939 21.6773 130.667 21.1867 130.24 20.856C129.824 20.5253 129.333 20.36 128.768 20.36C128.128 20.36 127.595 20.536 127.168 20.888C126.741 21.24 126.469 21.72 126.352 22.328ZM140.61 15.8H142.338V27H140.61V25.848C139.959 26.7547 139.026 27.208 137.81 27.208C136.711 27.208 135.772 26.8027 134.994 25.992C134.215 25.1707 133.826 24.1733 133.826 23C133.826 21.816 134.215 20.8187 134.994 20.008C135.772 19.1973 136.711 18.792 137.81 18.792C139.026 18.792 139.959 19.24 140.61 20.136V15.8ZM136.274 24.84C136.754 25.32 137.356 25.56 138.082 25.56C138.807 25.56 139.41 25.32 139.89 24.84C140.37 24.3493 140.61 23.736 140.61 23C140.61 22.264 140.37 21.656 139.89 21.176C139.41 20.6853 138.807 20.44 138.082 20.44C137.356 20.44 136.754 20.6853 136.274 21.176C135.794 21.656 135.554 22.264 135.554 23C135.554 23.736 135.794 24.3493 136.274 24.84ZM145.984 17.48C145.77 17.6933 145.514 17.8 145.216 17.8C144.917 17.8 144.656 17.6933 144.432 17.48C144.218 17.256 144.112 16.9947 144.112 16.696C144.112 16.3973 144.218 16.1413 144.432 15.928C144.645 15.704 144.906 15.592 145.216 15.592C145.525 15.592 145.786 15.704 146 15.928C146.213 16.1413 146.32 16.3973 146.32 16.696C146.32 16.9947 146.208 17.256 145.984 17.48ZM144.352 27V19H146.08V27H144.352ZM152.55 20.664H150.566V24.504C150.566 24.8347 150.641 25.0747 150.79 25.224C150.939 25.3627 151.158 25.4427 151.446 25.464C151.745 25.4747 152.113 25.4693 152.55 25.448V27C151.227 27.16 150.278 27.048 149.702 26.664C149.126 26.2693 148.838 25.5493 148.838 24.504V20.664H147.366V19H148.838V17.272L150.566 16.76V19H152.55V20.664ZM155.749 17.48C155.536 17.6933 155.28 17.8 154.981 17.8C154.683 17.8 154.421 17.6933 154.197 17.48C153.984 17.256 153.877 16.9947 153.877 16.696C153.877 16.3973 153.984 16.1413 154.197 15.928C154.411 15.704 154.672 15.592 154.981 15.592C155.291 15.592 155.552 15.704 155.765 15.928C155.979 16.1413 156.085 16.3973 156.085 16.696C156.085 16.9947 155.973 17.256 155.749 17.48ZM154.117 27V19H155.845V27H154.117ZM161.628 27.208C160.454 27.208 159.457 26.8027 158.636 25.992C157.814 25.1813 157.404 24.184 157.404 23C157.404 21.816 157.814 20.8187 158.636 20.008C159.457 19.1973 160.454 18.792 161.628 18.792C162.812 18.792 163.809 19.1973 164.62 20.008C165.441 20.8187 165.852 21.816 165.852 23C165.852 24.184 165.441 25.1813 164.62 25.992C163.809 26.8027 162.812 27.208 161.628 27.208ZM159.852 24.808C160.332 25.288 160.924 25.528 161.628 25.528C162.332 25.528 162.924 25.288 163.404 24.808C163.884 24.328 164.124 23.7253 164.124 23C164.124 22.2747 163.884 21.672 163.404 21.192C162.924 20.712 162.332 20.472 161.628 20.472C160.924 20.472 160.332 20.712 159.852 21.192C159.372 21.672 159.132 22.2747 159.132 23C159.132 23.7253 159.372 24.328 159.852 24.808ZM171.622 18.792C172.54 18.792 173.281 19.0853 173.846 19.672C174.412 20.2587 174.694 21.064 174.694 22.088V27H172.966V22.264C172.966 21.6667 172.806 21.208 172.486 20.888C172.166 20.568 171.729 20.408 171.174 20.408C170.566 20.408 170.076 20.6 169.702 20.984C169.329 21.3573 169.142 21.9333 169.142 22.712V27H167.414V19H169.142V20.024C169.665 19.2027 170.492 18.792 171.622 18.792Z" fill="white"/>
<path d="M126.368 23.736C126.496 24.344 126.789 24.8133 127.248 25.144C127.707 25.464 128.267 25.624 128.928 25.624C129.845 25.624 130.533 25.2933 130.992 24.632L132.416 25.464C131.627 26.6267 130.459 27.208 128.912 27.208C127.611 27.208 126.56 26.8133 125.76 26.024C124.96 25.224 124.56 24.216 124.56 23C124.56 21.8053 124.955 20.808 125.744 20.008C126.533 19.1973 127.547 18.792 128.784 18.792C129.957 18.792 130.917 19.2027 131.664 20.024C132.421 20.8453 132.8 21.8427 132.8 23.016C132.8 23.1973 132.779 23.4373 132.736 23.736H126.368ZM126.352 22.328H131.056C130.939 21.6773 130.667 21.1867 130.24 20.856C129.824 20.5253 129.333 20.36 128.768 20.36C128.128 20.36 127.595 20.536 127.168 20.888C126.741 21.24 126.469 21.72 126.352 22.328ZM140.61 15.8H142.338V27H140.61V25.848C139.959 26.7547 139.026 27.208 137.81 27.208C136.711 27.208 135.772 26.8027 134.994 25.992C134.215 25.1707 133.826 24.1733 133.826 23C133.826 21.816 134.215 20.8187 134.994 20.008C135.772 19.1973 136.711 18.792 137.81 18.792C139.026 18.792 139.959 19.24 140.61 20.136V15.8ZM136.274 24.84C136.754 25.32 137.356 25.56 138.082 25.56C138.807 25.56 139.41 25.32 139.89 24.84C140.37 24.3493 140.61 23.736 140.61 23C140.61 22.264 140.37 21.656 139.89 21.176C139.41 20.6853 138.807 20.44 138.082 20.44C137.356 20.44 136.754 20.6853 136.274 21.176C135.794 21.656 135.554 22.264 135.554 23C135.554 23.736 135.794 24.3493 136.274 24.84ZM145.984 17.48C145.77 17.6933 145.514 17.8 145.216 17.8C144.917 17.8 144.656 17.6933 144.432 17.48C144.218 17.256 144.112 16.9947 144.112 16.696C144.112 16.3973 144.218 16.1413 144.432 15.928C144.645 15.704 144.906 15.592 145.216 15.592C145.525 15.592 145.786 15.704 146 15.928C146.213 16.1413 146.32 16.3973 146.32 16.696C146.32 16.9947 146.208 17.256 145.984 17.48ZM144.352 27V19H146.08V27H144.352ZM152.55 20.664H150.566V24.504C150.566 24.8347 150.641 25.0747 150.79 25.224C150.939 25.3627 151.158 25.4427 151.446 25.464C151.745 25.4747 152.113 25.4693 152.55 25.448V27C151.227 27.16 150.278 27.048 149.702 26.664C149.126 26.2693 148.838 25.5493 148.838 24.504V20.664H147.366V19H148.838V17.272L150.566 16.76V19H152.55V20.664ZM155.749 17.48C155.536 17.6933 155.28 17.8 154.981 17.8C154.683 17.8 154.421 17.6933 154.197 17.48C153.984 17.256 153.877 16.9947 153.877 16.696C153.877 16.3973 153.984 16.1413 154.197 15.928C154.411 15.704 154.672 15.592 154.981 15.592C155.291 15.592 155.552 15.704 155.765 15.928C155.979 16.1413 156.085 16.3973 156.085 16.696C156.085 16.9947 155.973 17.256 155.749 17.48ZM154.117 27V19H155.845V27H154.117ZM161.628 27.208C160.454 27.208 159.457 26.8027 158.636 25.992C157.814 25.1813 157.404 24.184 157.404 23C157.404 21.816 157.814 20.8187 158.636 20.008C159.457 19.1973 160.454 18.792 161.628 18.792C162.812 18.792 163.809 19.1973 164.62 20.008C165.441 20.8187 165.852 21.816 165.852 23C165.852 24.184 165.441 25.1813 164.62 25.992C163.809 26.8027 162.812 27.208 161.628 27.208ZM159.852 24.808C160.332 25.288 160.924 25.528 161.628 25.528C162.332 25.528 162.924 25.288 163.404 24.808C163.884 24.328 164.124 23.7253 164.124 23C164.124 22.2747 163.884 21.672 163.404 21.192C162.924 20.712 162.332 20.472 161.628 20.472C160.924 20.472 160.332 20.712 159.852 21.192C159.372 21.672 159.132 22.2747 159.132 23C159.132 23.7253 159.372 24.328 159.852 24.808ZM171.622 18.792C172.54 18.792 173.281 19.0853 173.846 19.672C174.412 20.2587 174.694 21.064 174.694 22.088V27H172.966V22.264C172.966 21.6667 172.806 21.208 172.486 20.888C172.166 20.568 171.729 20.408 171.174 20.408C170.566 20.408 170.076 20.6 169.702 20.984C169.329 21.3573 169.142 21.9333 169.142 22.712V27H167.414V19H169.142V20.024C169.665 19.2027 170.492 18.792 171.622 18.792Z" fill="url(#paint7_linear_913_11190)"/>
<path d="M132.416 12L131.632 9.744H126.864L126.08 12H124.08L128.144 0.799999H130.352L134.4 12H132.416ZM127.472 8.016H131.024L129.248 2.96L127.472 8.016ZM136.951 6.208C136.951 6.47467 137.095 6.688 137.383 6.848C137.681 6.99733 138.039 7.13067 138.455 7.248C138.881 7.35467 139.308 7.48267 139.735 7.632C140.161 7.78133 140.519 8.03733 140.807 8.4C141.105 8.752 141.255 9.2 141.255 9.744C141.255 10.512 140.956 11.1147 140.359 11.552C139.772 11.9893 139.031 12.208 138.135 12.208C137.345 12.208 136.668 12.0427 136.103 11.712C135.537 11.3813 135.127 10.9227 134.871 10.336L136.359 9.472C136.636 10.24 137.228 10.624 138.135 10.624C139.041 10.624 139.495 10.3253 139.495 9.728C139.495 9.472 139.345 9.264 139.047 9.104C138.759 8.944 138.401 8.81067 137.975 8.704C137.559 8.58667 137.137 8.45333 136.711 8.304C136.284 8.15467 135.921 7.90933 135.623 7.568C135.335 7.216 135.191 6.77333 135.191 6.24C135.191 5.504 135.468 4.912 136.023 4.464C136.588 4.016 137.287 3.792 138.119 3.792C138.78 3.792 139.367 3.94133 139.879 4.24C140.401 4.528 140.801 4.93333 141.079 5.456L139.623 6.272C139.345 5.664 138.844 5.36 138.119 5.36C137.788 5.36 137.511 5.43467 137.287 5.584C137.063 5.72267 136.951 5.93067 136.951 6.208ZM143.841 6.208C143.841 6.47467 143.985 6.688 144.273 6.848C144.572 6.99733 144.929 7.13067 145.345 7.248C145.772 7.35467 146.199 7.48267 146.625 7.632C147.052 7.78133 147.409 8.03733 147.697 8.4C147.996 8.752 148.145 9.2 148.145 9.744C148.145 10.512 147.847 11.1147 147.249 11.552C146.663 11.9893 145.921 12.208 145.025 12.208C144.236 12.208 143.559 12.0427 142.993 11.712C142.428 11.3813 142.017 10.9227 141.761 10.336L143.249 9.472C143.527 10.24 144.119 10.624 145.025 10.624C145.932 10.624 146.385 10.3253 146.385 9.728C146.385 9.472 146.236 9.264 145.937 9.104C145.649 8.944 145.292 8.81067 144.865 8.704C144.449 8.58667 144.028 8.45333 143.601 8.304C143.175 8.15467 142.812 7.90933 142.513 7.568C142.225 7.216 142.081 6.77333 142.081 6.24C142.081 5.504 142.359 4.912 142.913 4.464C143.479 4.016 144.177 3.792 145.009 3.792C145.671 3.792 146.257 3.94133 146.769 4.24C147.292 4.528 147.692 4.93333 147.969 5.456L146.513 6.272C146.236 5.664 145.735 5.36 145.009 5.36C144.679 5.36 144.401 5.43467 144.177 5.584C143.953 5.72267 143.841 5.93067 143.841 6.208ZM153.237 12.208C152.064 12.208 151.066 11.8027 150.245 10.992C149.424 10.1813 149.013 9.184 149.013 8C149.013 6.816 149.424 5.81867 150.245 5.008C151.066 4.19733 152.064 3.792 153.237 3.792C154.421 3.792 155.418 4.19733 156.229 5.008C157.05 5.81867 157.461 6.816 157.461 8C157.461 9.184 157.05 10.1813 156.229 10.992C155.418 11.8027 154.421 12.208 153.237 12.208ZM151.461 9.808C151.941 10.288 152.533 10.528 153.237 10.528C153.941 10.528 154.533 10.288 155.013 9.808C155.493 9.328 155.733 8.72533 155.733 8C155.733 7.27467 155.493 6.672 155.013 6.192C154.533 5.712 153.941 5.472 153.237 5.472C152.533 5.472 151.941 5.712 151.461 6.192C150.981 6.672 150.741 7.27467 150.741 8C150.741 8.72533 150.981 9.328 151.461 9.808ZM162.8 12.208C161.594 12.208 160.586 11.8027 159.776 10.992C158.976 10.1813 158.576 9.184 158.576 8C158.576 6.80533 158.976 5.808 159.776 5.008C160.586 4.19733 161.594 3.792 162.8 3.792C163.578 3.792 164.288 3.97867 164.928 4.352C165.568 4.72533 166.048 5.22667 166.368 5.856L164.88 6.72C164.698 6.336 164.421 6.03733 164.048 5.824C163.685 5.6 163.264 5.488 162.784 5.488C162.08 5.488 161.488 5.728 161.008 6.208C160.538 6.688 160.304 7.28533 160.304 8C160.304 8.71467 160.538 9.312 161.008 9.792C161.488 10.272 162.08 10.512 162.784 10.512C163.253 10.512 163.674 10.4 164.048 10.176C164.432 9.952 164.72 9.65333 164.912 9.28L166.4 10.128C166.058 10.768 165.568 11.2747 164.928 11.648C164.288 12.0213 163.578 12.208 162.8 12.208ZM169.281 2.48C169.067 2.69333 168.811 2.8 168.513 2.8C168.214 2.8 167.953 2.69333 167.729 2.48C167.515 2.256 167.409 1.99467 167.409 1.696C167.409 1.39733 167.515 1.14133 167.729 0.927999C167.942 0.703999 168.203 0.591999 168.513 0.591999C168.822 0.591999 169.083 0.703999 169.297 0.927999C169.51 1.14133 169.617 1.39733 169.617 1.696C169.617 1.99467 169.505 2.256 169.281 2.48ZM167.649 12V4H169.377V12H167.649ZM177.719 4H179.447V12H177.719V10.848C177.068 11.7547 176.135 12.208 174.919 12.208C173.82 12.208 172.882 11.8027 172.103 10.992C171.324 10.1707 170.935 9.17333 170.935 8C170.935 6.816 171.324 5.81867 172.103 5.008C172.882 4.19733 173.82 3.792 174.919 3.792C176.135 3.792 177.068 4.24 177.719 5.136V4ZM173.383 9.84C173.863 10.32 174.466 10.56 175.191 10.56C175.916 10.56 176.519 10.32 176.999 9.84C177.479 9.34933 177.719 8.736 177.719 8C177.719 7.264 177.479 6.656 176.999 6.176C176.519 5.68533 175.916 5.44 175.191 5.44C174.466 5.44 173.863 5.68533 173.383 6.176C172.903 6.656 172.663 7.264 172.663 8C172.663 8.736 172.903 9.34933 173.383 9.84ZM185.925 5.664H183.941V9.504C183.941 9.83467 184.016 10.0747 184.165 10.224C184.314 10.3627 184.533 10.4427 184.821 10.464C185.12 10.4747 185.488 10.4693 185.925 10.448V12C184.602 12.16 183.653 12.048 183.077 11.664C182.501 11.2693 182.213 10.5493 182.213 9.504V5.664H180.741V4H182.213V2.272L183.941 1.76V4H185.925V5.664ZM188.524 8.736C188.652 9.344 188.946 9.81333 189.404 10.144C189.863 10.464 190.423 10.624 191.084 10.624C192.002 10.624 192.69 10.2933 193.148 9.632L194.572 10.464C193.783 11.6267 192.615 12.208 191.068 12.208C189.767 12.208 188.716 11.8133 187.916 11.024C187.116 10.224 186.716 9.216 186.716 8C186.716 6.80533 187.111 5.808 187.9 5.008C188.69 4.19733 189.703 3.792 190.94 3.792C192.114 3.792 193.074 4.20267 193.82 5.024C194.578 5.84533 194.956 6.84267 194.956 8.016C194.956 8.19733 194.935 8.43733 194.892 8.736H188.524ZM188.508 7.328H193.212C193.095 6.67733 192.823 6.18667 192.396 5.856C191.98 5.52533 191.49 5.36 190.924 5.36C190.284 5.36 189.751 5.536 189.324 5.888C188.898 6.24 188.626 6.72 188.508 7.328ZM197.716 6.208C197.716 6.47467 197.86 6.688 198.148 6.848C198.447 6.99733 198.804 7.13067 199.22 7.248C199.647 7.35467 200.074 7.48267 200.5 7.632C200.927 7.78133 201.284 8.03733 201.572 8.4C201.871 8.752 202.02 9.2 202.02 9.744C202.02 10.512 201.722 11.1147 201.124 11.552C200.538 11.9893 199.796 12.208 198.9 12.208C198.111 12.208 197.434 12.0427 196.868 11.712C196.303 11.3813 195.892 10.9227 195.636 10.336L197.124 9.472C197.402 10.24 197.994 10.624 198.9 10.624C199.807 10.624 200.26 10.3253 200.26 9.728C200.26 9.472 200.111 9.264 199.812 9.104C199.524 8.944 199.167 8.81067 198.74 8.704C198.324 8.58667 197.903 8.45333 197.476 8.304C197.05 8.15467 196.687 7.90933 196.388 7.568C196.1 7.216 195.956 6.77333 195.956 6.24C195.956 5.504 196.234 4.912 196.788 4.464C197.354 4.016 198.052 3.792 198.884 3.792C199.546 3.792 200.132 3.94133 200.644 4.24C201.167 4.528 201.567 4.93333 201.844 5.456L200.388 6.272C200.111 5.664 199.61 5.36 198.884 5.36C198.554 5.36 198.276 5.43467 198.052 5.584C197.828 5.72267 197.716 5.93067 197.716 6.208Z" fill="#1E0E62"/>
<defs>
<linearGradient id="paint0_linear_913_11190" x1="3.03344e-07" y1="3.15255" x2="13.202" y2="55.7024" gradientUnits="userSpaceOnUse">
<stop stop-color="#293FCA"/>
<stop offset="1" stop-color="#203C9C"/>
</linearGradient>
<linearGradient id="paint1_linear_913_11190" x1="3.03344e-07" y1="3.15255" x2="13.202" y2="55.7024" gradientUnits="userSpaceOnUse">
<stop stop-color="#293FCA"/>
<stop offset="1" stop-color="#203C9C"/>
</linearGradient>
<linearGradient id="paint2_linear_913_11190" x1="3.03344e-07" y1="3.15255" x2="13.202" y2="55.7024" gradientUnits="userSpaceOnUse">
<stop stop-color="#293FCA"/>
<stop offset="1" stop-color="#203C9C"/>
</linearGradient>
<linearGradient id="paint3_linear_913_11190" x1="3.03344e-07" y1="3.15255" x2="13.202" y2="55.7024" gradientUnits="userSpaceOnUse">
<stop stop-color="#293FCA"/>
<stop offset="1" stop-color="#203C9C"/>
</linearGradient>
<linearGradient id="paint4_linear_913_11190" x1="3.03344e-07" y1="3.15255" x2="13.202" y2="55.7024" gradientUnits="userSpaceOnUse">
<stop stop-color="#293FCA"/>
<stop offset="1" stop-color="#203C9C"/>
</linearGradient>
<linearGradient id="paint5_linear_913_11190" x1="3.03344e-07" y1="3.15255" x2="13.202" y2="55.7024" gradientUnits="userSpaceOnUse">
<stop stop-color="#293FCA"/>
<stop offset="1" stop-color="#203C9C"/>
</linearGradient>
<linearGradient id="paint6_linear_913_11190" x1="3.03344e-07" y1="3.15255" x2="13.202" y2="55.7024" gradientUnits="userSpaceOnUse">
<stop stop-color="#293FCA"/>
<stop offset="1" stop-color="#203C9C"/>
</linearGradient>
<linearGradient id="paint7_linear_913_11190" x1="178.161" y1="16.7701" x2="125.846" y2="32.9785" gradientUnits="userSpaceOnUse">
<stop stop-color="#3A7BE8"/>
<stop offset="0.33" stop-color="#8650D8"/>
<stop offset="0.66" stop-color="#EC4899"/>
<stop offset="1" stop-color="#FF8200"/>
</linearGradient>
</defs>
</svg>
